<?xml version="1.0" encoding="iso-8859-1"?>
<!-- Uploaded to: SVG Repo, www.svgrepo.com, Generator: SVG Repo Mixer Tools -->
<svg fill="#000000" height="800px" width="800px" version="1.1" id="Layer_1" xmlns="http://www.w3.org/2000/svg" xmlns:xlink="http://www.w3.org/1999/xlink" 
	 viewBox="0 0 512 512" xml:space="preserve">
<g>
	<g>
		<path d="M485.102,294.232c0.213-20.689-9.171-39.459-23.782-47.883c-1.173-0.747-2.452-1.387-3.732-1.92
			c11.838-17.063,20.369-36.152,25.168-56.415c8.105-34.98,1.067-99.179-74.544-122.108c-0.853-4.906-2.24-9.705-4.052-14.397
			c-12.477-31.246-42.018-43.404-42.338-43.511c-47.35-19.089-88.195,13.544-106.431,33.7C240.46,24.208,212.732,0.427,171.674,0
			c-47.457,0-80.73,28.154-91.394,77.104c-18.876,6.292-37.112,21.329-42.124,48.843c-1.6,9.491-1.92,29.754,7.146,43.191
			c-1.173,1.28-2.347,2.56-3.412,4.052c-10.238,13.117-15.57,29.327-15.25,45.963c0.747,27.194,15.997,47.563,25.915,58.015
			l-0.107,0.107c-12.797,12.157-21.223,28.687-24.422,47.883c-2.772,16.53-1.387,34.66,3.946,52.256
			c4.799,15.89,20.156,53.322,61.107,71.345c1.813,13.33,8.958,27.514,25.702,43.618c19.729,18.983,50.762,22.395,72.945,17.276
			c23.355-5.972,43.938-16.744,59.081-30.821c3.092,3.199,6.506,6.186,10.131,8.745c21.329,15.784,47.137,24.315,73.692,24.422
			c28.474,0,54.602-10.025,71.558-26.128c3.306-3.092,6.292-6.399,9.065-9.918c3.519-4.479,5.546-10.771,5.759-17.596
			c37.005-3.626,51.936-32.953,53.322-60.787c0.533-11.625-4.799-25.595-14.29-34.873
			C486.914,335.29,485.315,298.071,485.102,294.232z M439.244,352.993h-0.107c-6.399,0-12.584,2.027-17.703,5.652
			c-7.146,5.226-12.05,13.01-13.437,21.755c-0.107,0.533-0.213,1.067-0.32,1.493c-1.387-1.6-2.559-3.412-3.412-5.332
			c-11.198-23.462-29.327-38.605-52.576-44.044c-12.584-2.879-25.915-2.56-39.672,0.853c-5.759,1.387-9.171,7.251-7.785,12.904
			c1.387,5.652,7.252,9.171,12.904,7.785c9.705-2.559,19.943-2.879,29.754-0.747c16.849,3.946,29.754,14.824,38.072,32.313
			c8.211,17.596,19.943,18.876,26.234,18.023c2.666-0.427,5.119-1.173,7.571-2.346c0.96-0.427,1.92-0.96,2.772-1.6
			c2.666-1.707,4.586-4.372,5.226-7.465c1.067-2.772,1.813-5.652,2.24-8.531c0.427-3.092,2.133-5.866,4.692-7.678
			c1.813-1.387,4.052-2.027,6.292-1.813c7.358,1.92,13.757,14.077,13.437,22.182c-0.747,14.824-6.612,39.139-36.685,40.844
			c-5.012-10.238-14.077-18.023-24.955-21.648c-5.652-1.813-11.625,1.173-13.437,6.826c-1.813,5.652,1.173,11.625,6.826,13.437
			c6.826,2.133,12.05,7.571,13.97,14.397c1.813,6.079,0.747,11.091-0.213,12.264c-2.133,2.772-4.586,5.332-7.146,7.785
			c-25.168,23.888-76.251,30.394-118.162,0c-5.226-3.732-9.598-8.318-13.224-13.544c-1.92-2.772-4.906-4.479-8.318-4.692h-0.533
			c-3.199,0-6.186,1.387-8.211,3.839c-12.69,15.144-32.953,26.981-56.735,33.06c-15.89,3.626-39.352,1.493-53.216-11.838
			c-12.37-11.945-18.023-21.223-19.303-30.607c-0.508-3.779-0.3-5.362,0-9.278c1.173-8.851,5.332-18.556,10.771-30.927
			c0.213-0.427,0.32-0.747,0.427-1.173c8.745-28.687-4.052-40.099-13.33-48.417c-8.638-7.785-14.397-12.797-8.958-34.126
			c1.6-5.652-1.6-11.625-7.358-13.224c-5.652-1.6-11.625,1.6-13.224,7.358c-0.107,0.213-0.107,0.427-0.213,0.64
			c-8.531,33.913,5.226,46.283,15.357,55.348c7.785,7.039,11.838,10.558,7.358,25.702c-4.159,9.491-8.105,18.449-10.451,27.621
			C67.8,411.331,56.389,386.269,51.91,371.339c-4.479-14.61-5.546-29.327-3.412-42.658c2.453-14.61,8.638-26.981,18.129-35.94
			c5.759-5.439,12.797-9.598,20.369-12.157c8.425-2.879,17.383-3.946,26.234-2.986c10.985,1.28,21.329,6.079,29.541,13.544
			c8.638,7.998,14.824,18.129,18.129,29.434c3.199,10.665,4.266,22.288,3.092,35.406c-0.107,8.851-1.6,17.703-4.266,26.128
			c-1.707,5.652,1.493,11.625,7.146,13.33c1.707,0.533,3.626,0.533,5.439,0.213c8.211-1.92,14.717-0.32,19.089,4.586
			c5.226,5.866,7.039,15.997,4.372,23.675c-2.453,7.039-7.039,11.411-13.117,12.904c-7.251,1.707-15.997-0.853-22.288-6.826
			c-4.586-3.732-11.305-2.986-15.037,1.6c-3.306,4.159-3.199,10.131,0.427,13.97c11.518,10.878,27.621,15.464,41.911,11.944
			c13.224-3.199,23.248-12.584,28.261-26.554c5.332-14.93,1.813-33.38-8.531-45.004c-6.079-6.932-14.504-11.305-23.675-12.264
			c0.96-5.546,1.493-11.091,1.6-16.637c1.493-14.397,0.107-28.901-3.946-42.658c-4.372-15.037-12.797-28.474-24.208-39.032
			c-11.731-10.558-26.448-17.276-42.124-18.983c-0.64-0.107-1.28,0-1.92-0.107c-5.119-7.146-13.01-29.327-9.705-41.164
			c1.813-6.079-2.027-12.584-8.531-13.65c-2.879-0.533-5.972,0.32-8.318,2.24c-1.92,1.493-3.199,3.412-3.732,5.546
			c-4.052,14.077,0.427,34.02,6.932,48.523c-3.199,0.64-6.399,1.493-9.491,2.559c-3.626,1.173-7.146,2.666-10.558,4.372
			c-7.039-6.932-21.648-23.782-22.288-46.39c-0.213-11.625,3.519-23.035,10.665-32.206c1.493-1.92,3.092-3.626,4.906-5.226
			c3.792-2.906,9.791-6.739,16.21-8.638c3.092-0.853,6.186-1.28,9.385-1.493c3.092-0.213,6.079-0.213,9.171,0.107
			c24.208,2.452,30.821,13.864,35.086,21.435c0.213,0.32,0.533,0.533,0.747,0.853c1.707,3.412,8.851,19.836,3.519,43.618
			c-1.28,5.759,2.346,11.411,8.105,12.69c1.92,0.427,3.946,0.32,5.759-0.32c3.626-1.173,6.186-4.372,7.039-8.105
			c4.586-21.116,1.493-37.859-1.813-48.203c7.146-1.6,14.504-1.387,21.436,0.747c5.012,1.493,9.811,3.626,14.29,6.506
			c6.079,3.839,10.985,9.278,14.184,15.677c3.519,7.251,4.159,15.57,1.813,23.248c-1.173,3.946-2.879,7.785-5.119,11.198
			c-4.692,7.146-6.292,13.97-4.692,20.156c0.747,7.039,4.906,13.117,9.171,19.516c9.491,13.864,19.196,28.154-1.813,55.881
			c-3.519,4.692-2.666,11.411,2.027,14.93c4.693,3.519,11.411,2.666,14.93-2.027c30.287-39.992,12.797-65.586,2.452-80.836
			c-2.133-3.199-5.439-7.998-5.652-9.705c0-0.853-0.107-1.707-0.427-2.453c0,0,0.107-1.173,1.813-3.839
			c3.412-5.226,6.079-10.878,7.785-16.956c3.839-12.69,2.666-26.447-3.092-38.392c-4.906-9.811-12.37-18.236-21.648-24.208
			c-6.186-4.052-13.01-7.146-20.049-9.171c-12.264-3.626-25.275-3.412-37.432,0.533c-5.972-8.211-16.956-18.556-38.285-22.715
			c-1.813-5.972-2.986-19.836,0.32-25.702c2.772-5.226,0.853-11.625-4.372-14.504c-5.012-2.666-11.305-0.96-14.29,3.946
			c-5.226,9.278-5.759,23.462-3.732,34.873c-8.425,0.64-16.637,2.879-24.208,6.612c-3.732-6.506-4.479-19.303-3.306-26.661
			c5.652-31.353,35.086-34.553,40.844-34.873c7.998-0.427,15.997,1.173,23.355,4.479c11.518,5.332,20.263,14.824,26.661,29.114
			c8.318,18.449,25.275,29.327,43.191,27.514c17.276-1.707,30.821-14.184,35.193-32.633c2.027-8.638,1.6-21.648-5.972-32.42
			c-4.692-6.612-13.97-15.037-31.673-17.063c-2.772-0.32-8.211-1.92-10.985-5.759c-2.133-2.879-2.559-7.146-1.387-12.477
			c1.707-7.146-4.159-14.29-12.477-13.01c-1.067,0.213-2.133,0.533-3.092,1.067c-2.879,1.707-4.692,4.372-5.332,7.465
			c-3.092,14.29,0.96,23.888,4.906,29.434c8.318,11.731,21.862,14.077,25.808,14.61c7.891,0.96,13.544,3.626,16.636,8.105
			c3.732,5.332,3.412,12.264,2.772,15.25c-2.24,9.491-8.425,15.57-16.424,16.317c-6.932,0.64-16.21-2.986-21.648-15.037
			c-8.531-18.983-21.116-32.313-37.325-39.779c-9.065-4.159-18.983-6.399-29.007-6.506c12.69-42.764,43.938-52.149,68.573-52.149
			c40.951,0.427,66.013,30.714,74.971,43.724c2.027,3.092,5.546,4.799,9.171,4.692c3.626-0.107,7.039-2.027,8.851-5.226
			c0.32-0.64,40.419-56.628,89.474-36.792c0.213,0.107,21.648,9.598,30.394,31.673c6.292,15.784,4.479,34.446-5.332,55.561
			c-14.93,34.766-13.65,56.201-10.025,67.719c6.399,23.462,25.595,32.42,40.738,30.607c17.063-1.92,29.221-15.997,29.861-33.913
			c0.213-6.612-2.027-12.264-4.052-17.169c-3.519-8.745-4.692-11.731,3.626-18.983c4.479-3.839,4.906-10.665,0.96-15.037
			c-3.839-4.479-10.665-4.906-15.037-0.96c-19.729,17.276-13.224,33.38-9.278,43.084c1.28,3.306,2.56,6.399,2.56,8.425
			c-0.32,8.958-5.866,12.797-10.985,13.437c-6.079,0.747-14.29-2.772-17.809-15.357c-2.133-6.932-3.839-22.928,9.065-53.002
			c5.332-11.091,8.745-22.822,10.345-34.98c54.282,20.156,59.401,68.146,53.216,94.7c-4.586,19.729-13.33,37.965-26.661,55.775
			c-0.96,1.28-1.6,2.666-1.92,4.159c-4.052,1.173-7.891,2.879-11.411,5.012c-4.372,2.56-8.958,2.56-13.544-0.32
			c-5.332-3.199-8.638-9.065-8.425-12.37c0.427-5.866-3.946-10.985-9.918-11.411c0,0,0,0-0.107,0
			c-5.866-0.32-10.878,4.159-11.411,10.025c-0.747,11.731,6.932,24.848,18.556,31.993c11.411,6.932,24.422,7.146,35.726,0.427
			c6.719-3.946,12.69-4.479,17.809-1.6c7.785,4.479,13.224,16.53,13.117,30.074C464.093,296.258,466.119,331.878,439.244,352.993z"
			/>
	</g>
</g>
<g>
	<g>
		<path d="M441.592,289.221c-0.961-5.76-6.507-9.706-12.265-8.746c-5.866,0.96-9.811,6.399-8.851,12.264
			c1.92,11.731-0.213,20.583-5.972,24.742c-4.266,2.986-9.705,3.412-14.397,1.067c-6.292-3.199-9.278-12.157-9.278-27.301
			c0-19.623-11.625-33.486-29.754-35.086c-0.64-0.107-1.387-0.107-2.027,0c-32.313,3.092-33.166,33.273-33.593,46.177
			c-0.107,2.027-0.107,3.839-0.213,5.332c-0.533,5.866,3.839,11.091,9.705,11.518c5.759,0.64,10.985-3.626,11.518-9.385
			c0-0.107,0-0.213,0-0.32c0.213-1.92,0.213-4.159,0.32-6.612c0.533-17.383,2.666-24.102,13.33-25.488
			c3.199,0.427,9.385,2.24,9.385,13.757c0,8.745,0,35.513,20.903,46.283c11.731,5.972,25.915,4.906,36.685-2.772
			C434.446,329.319,446.071,316.415,441.592,289.221z"/>
	</g>
</g>
<g>
	<g>
		<path d="M356.915,180.337c-0.64-5.866-5.866-10.131-11.731-9.491c-5.759,0.533-10.025,5.652-9.598,11.411
			c0.64,7.146-1.707,14.29-6.399,19.729c-5.866,6.612-14.077,10.665-22.822,11.305c-17.596,1.387-38.27-18.779-38.945-28.827
			c-0.747-10.238-1.367-25.242-1.473-34.626c7.358,6.186,16.529,9.811,26.128,10.131c0.64,0,1.28,0,2.027,0
			c12.37,0,22.715-3.946,29.967-11.411c7.678-7.998,11.305-19.303,10.451-32.633c-0.107-2.453-0.64-5.652-1.28-9.385
			c-4.159-24.528-2.772-37.965,15.89-42.764c5.652-1.6,8.958-7.465,7.358-13.117c-1.6-5.546-7.146-8.745-12.69-7.465
			c-40.844,10.665-34.34,50.123-31.566,66.973c0.427,2.879,0.853,5.332,1.067,7.251c0.32,5.012-0.213,11.945-4.479,16.424
			s-10.985,5.119-15.89,4.906c-27.507-0.023-24.008-26.206-23.782-29.007c2.24-11.198,5.759-21.009,11.305-28.687
			c3.626-4.906,2.453-11.838-2.666-15.25c-2.452-1.6-5.546-2.027-8.318-1.387c-2.772,0.64-4.799,2.133-6.292,4.159
			c-24.422,33.7-19.623,88.089-14.077,151.115c0.853,10.131,1.813,20.583,2.667,31.246l0.107,1.493
			c5.972,77.851-2.879,114.216-10.025,143.437l-1.707,7.039c-1.28,5.759,2.347,11.411,8.105,12.69
			c5.652,1.28,11.305-2.133,12.69-7.785l1.707-6.932c5.546-22.822,12.157-49.803,12.584-95.553
			c5.226,2.666,11.091,4.052,16.956,4.052h1.387c11.305-0.427,21.862-5.652,29.114-14.397c3.839-4.479,3.306-11.198-1.173-15.037
			c-4.481-3.949-11.2-3.415-15.039,1.064c-3.412,4.159-8.318,6.612-13.65,6.932c-6.614,1.208-17.916-1-17.916-8.105
			c-0.32-9.171-0.853-18.876-1.707-29.434l-0.107-1.173c-0.64-8.745-1.387-17.169-2.133-25.488
			c9.491,7.039,21.009,10.878,32.846,10.985c1.387,0,2.879,0,4.266-0.213c14.504-0.96,27.941-7.785,37.432-18.769
			C353.929,205.932,358.088,193.241,356.915,180.337z"/>
	</g>
</g>
<g>
	<g>
		<path d="M369.394,436.708c-5.759-0.853-7.251-2.133-7.251-2.133c-0.64-1.387,0.533-6.826,1.067-10.025
			c2.24-11.198,5.972-30.074-12.797-44.151c-15.677-11.731-40.419-7.146-51.296,1.387c-10.346,7.999-16.212,19.197-16.532,31.247
			c-0.427,14.717,7.465,29.967,22.182,42.871c4.266,4.159,10.985,4.052,15.037-0.213c4.159-4.266,4.052-10.985-0.213-15.037
			c-0.213-0.213-0.533-0.533-0.853-0.747c-9.811-8.638-15.144-17.916-14.93-26.234c0.213-7.251,4.692-12.264,8.425-15.144
			c3.732-2.879,18.023-6.612,25.382-1.067c7.358,5.546,7.039,10.878,4.692,22.928c-1.707,8.425-3.626,18.023,2.346,26.447
			c4.159,5.866,11.305,9.491,21.755,10.985c5.866,0.853,11.198-3.199,12.05-9.065C379.312,442.892,375.26,437.561,369.394,436.708z"
			/>
	</g>
</g>
</svg>